<mxfile host="app.diagrams.net" modified="2024-05-18T12:26:34.759Z" agent="Mozilla/5.0 (Windows NT 10.0; Win64; x64) AppleWebKit/537.36 (KHTML, like Gecko) Chrome/125.0.0.0 Safari/537.36" version="24.4.4" etag="8vFpWkvQnIHBKiktaiLe" type="github">
  <diagram name="페이지-1" id="IyJkqecaohhw8zGntXZY">
    <mxGraphModel>
      <root>
        <mxCell id="0" />
        <mxCell id="1" parent="0" />
      </root>
    </mxGraphModel>
  </diagram>
</mxfile>
